PathFileType	4	(X/Y/Z)	C:\Users\Basilio\Documents\Thesis Gigler\squatting_fais\c3dfiles\044\SJ_pre5\markers_experimental.trc
DataRate	CameraRate	NumFrames	NumMarkers	Units	OrigDataRate	OrigDataStartFrame	OrigNumFrames
200.000000	200.000000	4	61	mm	200.000000	1645	1880
Frame#	Time	FHD			LBHD			RBHD			C7			T10			CLAV			LSHO			LUUPA			LMUPA			LDUPA			LLEP			LMEP			LRAD			LUL			LRFIN			RSHO			RUPA1			RMUPA			RDUPA			RLEP			RMEP			RRAD			RUL			RUFIN			LASI			RASI			USACR			LSACR			RSACR			LTHI1			LTHI2			LTHI3			LTHI4			LLFC			LMFC			LTIB1			LTIB2			LTIB3			LTIB4			LLMAL			LMMAL			LHEE			LMT1			LMT2			LMT5			RTHI			RTHI2			RTHI3			RTHI4			RLFC			RMFC			RTIB1			RTIB2			RTIB3			RTIB4			RLMAL			RMMAL			RHEE			RMT1			RMT2			RMT5			
		X1	Y1	Z1	X2	Y2	Z2	X3	Y3	Z3	X4	Y4	Z4	X5	Y5	Z5	X6	Y6	Z6	X7	Y7	Z7	X8	Y8	Z8	X9	Y9	Z9	X10	Y10	Z10	X11	Y11	Z11	X12	Y12	Z12	X13	Y13	Z13	X14	Y14	Z14	X15	Y15	Z15	X16	Y16	Z16	X17	Y17	Z17	X18	Y18	Z18	X19	Y19	Z19	X20	Y20	Z20	X21	Y21	Z21	X22	Y22	Z22	X23	Y23	Z23	X24	Y24	Z24	X25	Y25	Z25	X26	Y26	Z26	X27	Y27	Z27	X28	Y28	Z28	X29	Y29	Z29	X30	Y30	Z30	X31	Y31	Z31	X32	Y32	Z32	X33	Y33	Z33	X34	Y34	Z34	X35	Y35	Z35	X36	Y36	Z36	X37	Y37	Z37	X38	Y38	Z38	X39	Y39	Z39	X40	Y40	Z40	X41	Y41	Z41	X42	Y42	Z42	X43	Y43	Z43	X44	Y44	Z44	X45	Y45	Z45	X46	Y46	Z46	X47	Y47	Z47	X48	Y48	Z48	X49	Y49	Z49	X50	Y50	Z50	X51	Y51	Z51	X52	Y52	Z52	X53	Y53	Z53	X54	Y54	Z54	X55	Y55	Z55	X56	Y56	Z56	X57	Y57	Z57	X58	Y58	Z58	X59	Y59	Z59	X60	Y60	Z60	X61	Y61	Z61	

1646	8.225	-359.0430603027344	1773.904418945313	-953.0496826171877	-491.4079895019532	1714.133422851563	-1016.634155273438	-516.3368530273439	1696.592651367188	-851.7031250000002	-535.0585327148439	1538.163940429688	-936.0795898437502	-560.1870117187501	1231.156494140625	-925.9453125000002	-386.3593750000001	1499.758911132813	-935.0231933593752	-430.9997558593751	1528.573120117188	-1116.632080078125	-480.9931030273439	1339.404296875	-1253.683715820313	-446.3945312500001	1304.554321289063	-1240.012573242188	-483.2181091308595	1275.502807617188	-1280.521118164063	-477.3967285156251	1216.001586914063	-1288.864868164063	-548.8834838867189	1208.344482421875	-1246.41943359375	-459.1522827148439	975.4276123046877	-1141.824096679688	-409.4942016601564	965.1885986328127	-1189.923828125	-406.4734802246095	990.185974121094	-1101.896484375	-437.3155517578126	1521.92431640625	-740.1872558593751	-484.5546264648439	1341.859252929688	-602.8383789062501	-449.7065734863282	1305.934936523438	-611.9671020507814	-484.0715942382814	1278.966796875	-570.7922973632814	-473.8427124023439	1217.687866210938	-558.9362182617189	-548.9487915039064	1203.776123046875	-597.5539550781251	-457.7351684570314	969.9448852539065	-694.2938842773439	-412.6836242675782	960.3513793945315	-639.9329223632814	-401.2158813476564	977.7779541015627	-740.6417236328126	-380.8032531738282	1030.08056640625	-1031.431640625	-379.6114501953126	1009.189758300781	-811.1334228515627	-546.5981445312501	1081.34912109375	-915.0276489257815	-550.3424682617189	1048.745849609375	-942.918151855469	-551.9993896484376	1052.962890625	-885.801940917969	-490.8843078613282	805.200866699219	-1121.237182617188	-455.3940734863282	728.1171264648439	-1131.778442382813	-407.9193420410157	731.4017333984376	-1128.684814453125	-480.5125732421876	673.9743041992189	-1120.830688476563	-459.4096679687501	515.8339843750001	-1124.631469726563	-441.1394653320314	495.2134399414064	-1005.492553710938	-438.9815979003907	332.5209960937501	-1074.81103515625	-471.4118957519532	295.4270935058594	-1148.43359375	-439.2537536621095	288.2510070800782	-1114.643432617188	-457.1212158203126	208.4710693359376	-1092.5322265625	-514.7858886718751	96.66320800781253	-1151.534912109375	-490.8897094726564	99.32247161865237	-1066.489013671875	-572.1941528320314	48.67401504516603	-1102.96630859375	-355.8356018066407	62.18411254882814	-1095.898803710938	-359.2184753417969	63.03632736206056	-1142.142578125	-397.2240600585939	44.04656600952149	-1187.116088867188	-486.4638671875001	752.6062011718751	-726.0101318359376	-445.7264099121095	700.3074951171876	-713.3428955078126	-412.6326904296876	702.8685913085939	-715.4287109375001	-466.5864257812501	619.1342163085939	-725.0520019531251	-463.8052673339845	505.9432678222657	-721.8236694335939	-460.0803833007814	487.457244873047	-844.196716308594	-425.0294189453126	374.1485595703126	-731.3250732421876	-501.802947998047	311.7134704589844	-682.6481323242189	-459.9008789062501	300.8645019531251	-697.4405517578126	-451.4541625976564	247.1832427978516	-716.6799926757814	-524.9288940429689	96.10974121093753	-689.5662231445314	-501.0614318847657	97.89005279541018	-772.4487304687502	-575.7881469726564	48.28599548339845	-733.2957153320314	-364.5014343261719	63.44522094726564	-741.6833496093751	-360.1337585449219	61.09981155395509	-703.3128051757814	-397.5435180664064	40.16783142089844	-652.0419311523439	
1647	8.23	-359.0923767089844	1773.642822265625	-952.5581054687502	-491.6830444335939	1713.962524414063	-1015.902038574219	-516.4417114257814	1696.70166015625	-851.138610839844	-535.2585449218751	1538.108520507813	-935.528503417969	-560.3839721679689	1231.124633789063	-925.504821777344	-386.4195861816407	1499.995483398438	-934.3301391601565	-431.3308105468751	1528.650146484375	-1116.02294921875	-481.0189819335939	1339.566162109375	-1253.178466796875	-446.5256347656251	1304.546752929688	-1239.548217773438	-483.5201721191407	1275.533935546875	-1279.898315429688	-477.7391967773439	1216.129638671875	-1288.211669921875	-549.4965820312501	1209.30126953125	-1246.066528320313	-459.496795654297	975.3107910156252	-1141.493530273438	-410.0157775878907	965.086120605469	-1189.557861328125	-406.9276733398439	990.1455688476565	-1101.632568359375	-437.4647216796876	1521.902587890625	-739.5897216796876	-484.5939025878907	1341.828247070313	-602.4093627929689	-449.5872192382814	1305.844360351563	-611.4714965820314	-483.8552551269532	1278.824829101563	-570.4603271484376	-473.6870117187501	1217.475952148438	-558.3864135742189	-548.7599487304689	1203.635375976563	-596.8843994140626	-457.6667785644532	969.9167480468752	-693.9277954101564	-412.2568664550782	960.276062011719	-639.7816162109376	-401.2352600097657	977.6011962890627	-740.3891601562501	-381.1226196289063	1030.026977539063	-1031.031494140625	-379.6461181640626	1009.138427734375	-810.769226074219	-546.8016967773439	1081.25537109375	-914.7265625000002	-550.5139770507814	1048.785888671875	-942.521423339844	-552.4459228515626	1053.091918945313	-885.427673339844	-491.0468139648439	805.2777099609377	-1121.008056640625	-455.7056884765626	728.3117675781251	-1131.399658203125	-407.991668701172	731.5601806640626	-1128.440551757813	-480.8027954101564	674.0259399414064	-1120.574462890625	-459.6862182617189	515.8855590820314	-1124.399047851563	-441.4444274902345	495.146453857422	-1005.315734863281	-439.157928466797	332.4400329589844	-1074.641967773438	-471.5010681152345	295.5504760742188	-1148.2685546875	-439.2608337402345	288.3398132324219	-1114.477783203125	-457.1390380859376	208.6786193847657	-1092.499145507813	-514.8922729492189	96.64595794677737	-1151.480102539063	-490.9509887695314	99.27555084228518	-1066.52587890625	-572.1984863281251	48.66434478759767	-1102.973266601563	-355.8564147949219	62.21028900146486	-1095.929321289063	-359.3690185546876	63.38563919067384	-1142.216552734375	-397.2477111816407	44.04541778564454	-1187.097778320313	-486.6377258300782	752.6161499023439	-725.7609252929689	-445.6964721679689	700.2965698242189	-713.1506347656251	-412.6727600097657	702.8378295898439	-715.2528686523439	-466.6857910156251	619.3043823242189	-725.0255737304689	-463.8729553222657	505.9100952148439	-721.6888427734376	-460.1714477539064	487.4952697753907	-844.0715942382815	-425.1115112304689	374.2192993164063	-731.2215576171876	-501.8546142578126	311.6767272949219	-682.5801391601564	-460.0101928710939	300.8582153320313	-697.3895874023439	-451.4617919921876	247.1587829589844	-716.6614990234376	-524.9641113281251	96.07380676269534	-689.5702514648439	-501.0610656738282	97.9160079956055	-772.374206542969	-575.7680053710939	48.28609085083009	-733.3133544921876	-364.5768127441407	63.4708595275879	-741.6423950195314	-360.1600036621094	61.17127609252931	-703.5696411132814	-397.5375976562501	40.18244934082032	-652.0352172851564	
1648	8.234999999999999	-358.9131469726563	1773.695190429688	-951.8378906250002	-491.645477294922	1714.1435546875	-1015.281616210938	-516.4414672851564	1696.6494140625	-850.457214355469	-535.4301147460939	1538.0927734375	-934.9724121093752	-560.5435180664064	1231.093627929688	-925.1961059570315	-386.5088500976564	1499.933227539063	-933.8594970703127	-431.3778076171876	1528.737426757813	-1115.574462890625	-481.0946044921876	1339.6103515625	-1252.660400390625	-446.9671325683595	1304.6591796875	-1238.8173828125	-483.7491455078126	1275.689208984375	-1279.248046875	-478.1916503906251	1216.165161132813	-1287.511840820313	-549.4129638671876	1208.594604492188	-1245.270629882813	-459.8152465820314	975.081237792969	-1141.141845703125	-410.0953979492189	965.1519165039065	-1189.386108398438	-407.2468261718751	990.1414794921877	-1101.390502929688	-437.9450683593751	1521.674682617188	-738.9240722656251	-484.4703369140626	1341.626220703125	-601.6943359375001	-449.4960021972657	1305.8681640625	-611.1124877929689	-483.4759216308595	1278.560913085938	-569.8282470703126	-473.4261169433595	1217.16650390625	-557.7517089843751	-548.6527099609376	1203.2939453125	-596.2454833984376	-457.629364013672	969.7990722656252	-693.5078125000001	-411.9450988769532	960.2197265625002	-639.5289916992189	-401.2257385253907	977.587341308594	-740.1193237304689	-383.4494628906251	1029.336303710938	-1029.55419921875	-379.8399658203126	1009.130676269531	-810.475036621094	-546.8889160156251	1081.296752929688	-914.442077636719	-550.8436279296876	1048.787109375	-942.0205078125002	-552.3545532226564	1052.985961914063	-885.0236816406252	-491.170867919922	805.3782348632815	-1120.737426757813	-455.8416442871095	728.2199096679689	-1131.33984375	-408.1785278320314	731.5875854492189	-1128.218017578125	-480.9614562988282	674.0880126953126	-1120.416748046875	-460.002166748047	515.8976440429689	-1124.136352539063	-441.9891052246095	495.2884521484376	-1005.117370605469	-439.3273925781251	332.6494140625001	-1074.518920898438	-471.6974182128907	295.6979675292969	-1147.9892578125	-439.3895263671876	288.7844238281251	-1114.426879882813	-457.2869262695314	208.9998168945313	-1092.399169921875	-514.8940429687501	96.64244079589847	-1151.455688476563	-490.9672241210939	99.34430694580081	-1066.491455078125	-572.2366333007814	48.52412033081056	-1102.934448242188	-355.8496398925782	62.22814559936525	-1095.892456054688	-359.2780456542969	63.47528076171876	-1141.807006835938	-397.2152099609376	44.09950637817384	-1187.115966796875	-486.8528137207032	752.6673583984376	-725.4415283203126	-445.7251892089845	700.1966552734376	-712.8936157226564	-412.6825561523439	702.8569335937501	-715.0665283203126	-466.6561584472657	619.2520751953126	-724.8068237304689	-463.8434448242189	505.9276123046876	-721.5505371093751	-460.202362060547	487.4988403320314	-843.9465942382815	-425.1359252929689	374.2541809082032	-731.1577758789064	-501.9159545898439	311.6376953125001	-682.4398803710939	-460.0666503906251	300.8354797363282	-697.2925415039064	-451.4793090820314	247.1585083007813	-716.5891723632814	-524.9666137695314	96.084342956543	-689.5646362304689	-501.1879882812501	97.86627960205081	-772.3921508789065	-575.8256225585939	48.36646270751955	-733.3541259765626	-364.5517578125001	63.46331024169923	-741.6911621093751	-360.1484985351563	61.13393783569337	-703.5645141601564	-397.5345458984376	40.17886352539063	-652.0331420898439	
1649	8.24	-359.2159729003907	1774.098999023438	-950.9973144531252	-491.246551513672	1714.46728515625	-1014.667297363281	-516.7027587890626	1696.383056640625	-849.3815917968752	-535.5495605468751	1538.190551757813	-934.4693603515627	-560.6975097656251	1231.110473632813	-924.8654785156252	-386.6145324707032	1499.912353515625	-933.369567871094	-431.5323791503907	1528.823486328125	-1114.994018554688	-481.4564208984376	1339.644775390625	-1251.982788085938	-446.8098144531251	1304.8984375	-1238.592041015625	-483.9751281738282	1275.756469726563	-1278.683959960938	-478.4163818359376	1216.252563476563	-1287.007080078125	-549.7370605468751	1208.98193359375	-1244.795776367188	-460.1857299804689	975.0723876953127	-1140.823120117188	-410.4035034179689	965.0341796875002	-1189.209350585938	-407.6748962402345	990.1079101562502	-1101.129272460938	-438.1318969726564	1521.529174804688	-738.3936157226564	-484.4683837890626	1341.455810546875	-601.1255493164064	-449.587615966797	1305.776489257813	-610.5070190429689	-483.3425292968751	1278.528686523438	-569.3681030273439	-473.2317504882814	1217.026733398438	-557.2377929687501	-548.5781250000001	1203.063720703125	-595.6566772460939	-457.4400939941407	969.7869873046877	-693.1052856445314	-411.6698303222657	960.1355590820315	-639.2453002929689	-401.1670532226564	977.5369262695315	-739.8173828125001	-383.7345275878907	1029.268310546875	-1029.178955078125	-379.8933105468751	1009.09033203125	-810.156921386719	-547.0318603515626	1081.3408203125	-914.0833129882815	-554.1270141601564	1049.635009765625	-941.313171386719	-551.1606445312501	1051.650512695313	-884.6477661132815	-491.3057556152345	805.4224243164065	-1120.512573242188	-456.1508789062501	728.3011474609376	-1131.156616210938	-408.444305419922	731.6193237304689	-1127.969848632813	-481.2591857910157	674.2150268554689	-1120.12646484375	-460.2431945800782	515.9361572265626	-1124.000732421875	-442.7261962890626	495.4419250488282	-1004.725830078125	-439.7357482910157	332.6389160156251	-1074.426025390625	-471.9247131347657	295.7139587402344	-1147.865234375	-439.4076538085939	288.8848266601563	-1114.311889648438	-457.5562744140626	208.986068725586	-1092.33935546875	-514.8715820312501	96.63690948486331	-1151.499755859375	-490.9935607910157	99.24182891845706	-1066.4921875	-572.1852416992189	48.66561889648439	-1102.967407226563	-355.8458251953126	62.27930831909181	-1095.939086914063	-359.2468261718751	63.07612228393556	-1142.177612304688	-397.1836242675782	44.10894393920899	-1187.11865234375	-486.9463500976564	752.5643920898439	-725.2246704101564	-445.749237060547	700.1538696289064	-712.6456909179689	-412.8594665527345	702.8894042968751	-714.8706665039064	-466.6451110839845	619.2480468750001	-724.6163330078126	-463.8820190429689	505.977264404297	-721.4321289062501	-460.1987915039064	487.5178222656251	-843.8553466796877	-425.1630859375001	374.2367248535157	-731.1109619140626	-502.0093078613282	311.7311401367188	-682.3905029296876	-460.1918029785157	300.8227844238282	-697.2307739257814	-451.4945373535157	247.0939483642579	-716.4193115234376	-524.9863891601564	96.04933929443362	-689.5952758789064	-501.132049560547	97.85030364990237	-772.3858642578127	-575.7763061523439	48.29518890380861	-733.2791137695314	-364.1324768066407	63.79878997802736	-741.5893554687501	-360.3083496093751	61.10037231445314	-703.6886596679689	-397.550994873047	40.17954635620118	-652.0639648437501	
